
<svg data-name="Layer 1" xmlns="http://www.w3.org/2000/svg" viewBox="0 0 477.4 136.88"><g fill="#ffffff"><path d="M162.71 41.62h35.19a2.54 2.54 0 0 1 1.41.34 1.7 1.7 0 0 1 .81 1.23 12.64 12.64 0 0 1 .13 1.92 7.09 7.09 0 0 0 0 .81 1.27 1.27 0 0 1-.13.72 1.71 1.71 0 0 1-1.49 1.49 26.54 26.54 0 0 1-2.86.13h-24.34a3.57 3.57 0 0 0-2.31.55 2.06 2.06 0 0 0-.81 1.78V63.26a6 6 0 0 0 .13 1.7v.68c.11.34.21.67.3 1a1.17 1.17 0 0 0 .56.72 4.23 4.23 0 0 0 2.39.47h21.67a8.89 8.89 0 0 1 1.63.21 1.46 1.46 0 0 1 1 .6 1.9 1.9 0 0 1 .43 1.27v2.49a1.69 1.69 0 0 1-.17.77c-.23.56-.54.88-.94.93a1.42 1.42 0 0 1-.64.17 3.76 3.76 0 0 0-.73.09 2.11 2.11 0 0 1-.73 0 6.86 6.86 0 0 0-.73 0h-20.74a4.23 4.23 0 0 0-2.61.55 2.06 2.06 0 0 0-.64 1.06 7 7 0 0 0-.26 1.66V95.87c0 1 0 2 .09 3.15a3.7 3.7 0 0 1-.6 2.55 1 1 0 0 1-.77.38 4.58 4.58 0 0 0-1 .21h-1.62q-1.2 0-2.22-.09a1.7 1.7 0 0 1-1.45-.85 2.49 2.49 0 0 1-.34-1.4V46.46v-2.08a3.13 3.13 0 0 1 .38-1.83 2.53 2.53 0 0 1 1.28-.85.58.58 0 0 1 .38 0 .58.58 0 0 0 .38 0M220.26 41.62h37.2A2.42 2.42 0 0 1 259 42a1.59 1.59 0 0 1 .43.43l.34.51a7.78 7.78 0 0 1 .17 1.91 8.94 8.94 0 0 1-.17 2 1.64 1.64 0 0 1-1.46 1.32 23.37 23.37 0 0 1-2.65.13H229.53a5.21 5.21 0 0 0-2.69.47 2 2 0 0 0-.9 1.79v13.52a8.14 8.14 0 0 0 .13 2 1.86 1.86 0 0 0 1 1.36 5.05 5.05 0 0 0 1.2.34h.85a2.16 2.16 0 0 0 .73 0 7.41 7.41 0 0 1 .81 0H253.97a16.24 16.24 0 0 1 1.79.17 3.55 3.55 0 0 1 1.24.38 1.37 1.37 0 0 1 .43.76 9.08 9.08 0 0 1 .26 1.28 7.84 7.84 0 0 1 0 1.4 4.8 4.8 0 0 1-.22 1.23 1.59 1.59 0 0 1-.77 1.1.8.8 0 0 1-.47.21 3.51 3.51 0 0 0-.56.13h-.51a3 3 0 0 1-.86 0h-24.05a9.77 9.77 0 0 0-1.84.09 4.6 4.6 0 0 0-1.5.47 1.88 1.88 0 0 0-.9 1.19 3 3 0 0 0-.13 1.19v14.07c0 .8 0 1.52.09 2.17a1.8 1.8 0 0 0 .68 1.4 2.54 2.54 0 0 0 1.37.47H257.27a3.21 3.21 0 0 1 1.2.13 2.37 2.37 0 0 1 1.37.94 2.19 2.19 0 0 1 .26.85c.05.4.1.81.13 1.24a6.63 6.63 0 0 1 0 1.28c-.06.42-.12.75-.17 1a2.18 2.18 0 0 1-.77.93 2.34 2.34 0 0 1-1.33.34h-36.3a13.86 13.86 0 0 1-2.05-.13 1.72 1.72 0 0 1-1.28-.81 2.31 2.31 0 0 1-.34-1.32v-56.2a1.84 1.84 0 0 1 .34-1.19 2 2 0 0 1 1.28-.85.49.49 0 0 1 .34 0 .47.47 0 0 0 .34 0M316.28 64.75a7.63 7.63 0 0 0 .9-2q.3-1 .56-2.21v-.77a7.81 7.81 0 0 0 .09-2.59 10.84 10.84 0 0 0-.52-2.34 9 9 0 0 0-5.39-5.84 12 12 0 0 0-4-.77q-2.26-.08-4.66-.08h-14.08a.87.87 0 0 1-.39.08 1.5 1.5 0 0 0-.47.09 1.84 1.84 0 0 0-1.37 1.1 4.94 4.94 0 0 0-.3 2.13V66.47a3.28 3.28 0 0 0 .56 2.17 1.83 1.83 0 0 0 1.28.72 13 13 0 0 0 1.88.13h11.8a37.91 37.91 0 0 0 5.86-.34 16.65 16.65 0 0 0 4.83-1.4 8.09 8.09 0 0 0 3.42-3.06M326.63 100a1.33 1.33 0 0 1-.34 1.7 2.37 2.37 0 0 1-1.07.3H321.16a3.41 3.41 0 0 1-2.13-.6 2 2 0 0 1-.9-1.32c-.14-.6-.27-1.2-.39-1.83a2.6 2.6 0 0 1-.08-.64v-.55a1.2 1.2 0 0 1-.09-.77 1.42 1.42 0 0 0 0-.68 5.84 5.84 0 0 1-.09-1v-1l-.25-3.83a4.13 4.13 0 0 1-.17-1.19 5.15 5.15 0 0 0-.18-1.28 23.27 23.27 0 0 1-.64-3.06 11.11 11.11 0 0 0-.81-2.89 8.49 8.49 0 0 0-5.43-4.71 7.53 7.53 0 0 0-2.44-.47h-18.47l-1.07.3a1.55 1.55 0 0 0-.81.55 4.72 4.72 0 0 0-.56 2.76V95.44q0 1.19.09 2.94a5.43 5.43 0 0 1-.34 2.59 1 1 0 0 1-.68.76 1.43 1.43 0 0 1-.64.17 2 2 0 0 0-.73.17 2.27 2.27 0 0 1-.77 0h-2.69a2.73 2.73 0 0 1-1.5-.47 1.7 1.7 0 0 1-.68-1.57V46v-2a2.49 2.49 0 0 1 .38-1.61 2.53 2.53 0 0 1 1.28-.85.51.51 0 0 1 .34 0 .46.46 0 0 0 .34 0H307.13a5.56 5.56 0 0 1 1.2 0h.94c.34.06.69.1 1 .13s.71.07 1.11.13a11 11 0 0 0 1.41.26 12.05 12.05 0 0 1 1.41.25 31.15 31.15 0 0 1 3 1.11 14.32 14.32 0 0 1 2.56 1.45 12 12 0 0 1 3.46 3.53 19.76 19.76 0 0 1 2.18 4.89 8 8 0 0 1 .21 1.41 7.59 7.59 0 0 0 .22 1.4v.85a3.73 3.73 0 0 1 0 1 8.49 8.49 0 0 1-.13 1v.93a7.48 7.48 0 0 0-.21 1.28 5.92 5.92 0 0 1-.22 1.19l-.81 2.43a9 9 0 0 1-1.07 2.17 5.35 5.35 0 0 1-.56.77 5.58 5.58 0 0 0-.56.76.54.54 0 0 1-.17.13.59.59 0 0 0-.17.13c-.12.11-.24.26-.39.43s-.27.31-.38.42l-1.29 1a14.69 14.69 0 0 1-1.28.89 5.24 5.24 0 0 0-.77.55 1.31 1.31 0 0 0-.43.81.82.82 0 0 0 .38.85 6.1 6.1 0 0 0 .81.51 15.86 15.86 0 0 1 1.75 1.28 7.1 7.1 0 0 1 1.51 1.52 7.81 7.81 0 0 1 1.37 2.68c.29 1 .57 2.06.86 3.19.05.45.11.89.17 1.32s.11.86.17 1.32a2.86 2.86 0 0 1 .09 1.19 2.88 2.88 0 0 0 .08 1.19v.77a3.21 3.21 0 0 1 .09 1.28 3.56 3.56 0 0 0 .09 1.36 1.78 1.78 0 0 1 0 .64 2 2 0 0 0 0 .72c.11.57.2 1.15.26 1.74a7.26 7.26 0 0 0 .34 1.66 4.51 4.51 0 0 1 .21 1 4.34 4.34 0 0 0 .22 1zM348.52 41.62h6.84a2.28 2.28 0 0 1 1.28.34 2.67 2.67 0 0 1 1.07 1.36c.2.56.44 1.16.73 1.78.45 1.08.87 2.15 1.24 3.23s.78 2.15 1.24 3.23.77 2.06 1.11 3.11a30 30 0 0 0 1.2 3.1q.51 1.19.94 2.47t.94 2.46q1.54 3.83 2.91 7.7t2.91 7.7c.11.29.21.57.3.85a8.17 8.17 0 0 0 .3.85q.77 1.87 1.45 3.79t1.45 3.78a17.63 17.63 0 0 1 .68 1.83 1.6 1.6 0 0 0 1.12 1.23.6.6 0 0 0 .51 0 3.07 3.07 0 0 0 .34-.3 2.92 2.92 0 0 0 .64-.93c.14-.34.3-.71.47-1.11l1.37-3.61q.68-1.83 1.37-3.61c.12-.28.23-.58.34-.89s.23-.64.34-1q.68-1.61 1.24-3.28c.37-1.11.79-2.22 1.24-3.36q2.06-4.93 3.81-10t3.8-9.95q.68-1.7 1.33-3.49t1.33-3.49a10.44 10.44 0 0 0 .64-1.7 2.58 2.58 0 0 1 .9-1.45 3.87 3.87 0 0 1 1.33-.51 11.69 11.69 0 0 1 1.84-.21h5.51a2 2 0 0 1 1.24.34 1.77 1.77 0 0 1 .85 1.53q.09 1.11.08 2.38v53.87a2 2 0 0 1-.38 1.45 1.14 1.14 0 0 1-.77.64l-1.2.3h-3.42a1.6 1.6 0 0 1-1.37-.72 1.32 1.32 0 0 1-.21-.55 3.23 3.23 0 0 0-.22-.72v-.94a5.55 5.55 0 0 1 0-1.19V62.58q0-2.17-.08-4.21c0-.56 0-1.19-.09-1.87s-.37-1-.94-1v.09a1.68 1.68 0 0 0-1 1.1q-.38.94-.64 1.62-.6 1.45-1.11 2.94a29.43 29.43 0 0 1-1.2 2.93 5.61 5.61 0 0 0-.26.77 6.16 6.16 0 0 1-.26.77 25.17 25.17 0 0 0-1.15 3.1 25.92 25.92 0 0 1-1.15 3.11 22 22 0 0 0-1 2.59q-.43 1.32-.94 2.59-1.71 4-3.08 8t-3 8q-.69 1.53-1.2 3.06T381 99.19c-.29.63-.56 1.2-.82 1.74a2.27 2.27 0 0 1-1.49 1.15.61.61 0 0 1-.38 0 .87.87 0 0 0-.47 0 1.4 1.4 0 0 1-.6 0 5.31 5.31 0 0 0-.68 0h-1.71a2.07 2.07 0 0 1-1.37-.43 2.36 2.36 0 0 1-1-1.23 16.85 16.85 0 0 0-.73-1.66c-.46-1.14-.89-2.31-1.32-3.53s-.87-2.39-1.32-3.53a24.59 24.59 0 0 1-1.16-3.1 25.76 25.76 0 0 0-1.16-3.11q-2-4.76-3.68-9.61t-3.68-9.61q-.69-1.78-1.32-3.61c-.43-1.22-.87-2.39-1.33-3.53a18.57 18.57 0 0 1-.73-1.83 4.55 4.55 0 0 0-.9-1.57.47.47 0 0 0-.17-.21.63.63 0 0 1-.17-.13h-.43a.75.75 0 0 1-.17.13.7.7 0 0 0-.18.13 2.52 2.52 0 0 0-.17.93 3.21 3.21 0 0 1-.17 1v.94a2.36 2.36 0 0 0-.08 1.11 8.58 8.58 0 0 1 .08 1.19V99.95a2.38 2.38 0 0 1-.47 1.45 1.72 1.72 0 0 1-1.5.72h-3.34a2.42 2.42 0 0 1-.9-.17 1.6 1.6 0 0 1-1.24-1.44 22.24 22.24 0 0 1-.13-2.55V46.12v-2a2.18 2.18 0 0 1 1.67-2.47.59.59 0 0 1 .38 0 .58.58 0 0 0 .38 0M458.23 77.08a1.43 1.43 0 0 0 1-.85 2.55 2.55 0 0 0 .09-1.32 7 7 0 0 0-.43-1.45c-.2-.48-.38-.89-.56-1.23a1.42 1.42 0 0 1-.17-.6A1.37 1.37 0 0 0 458 71c-.17-.45-.33-.92-.47-1.4a12.34 12.34 0 0 0-.56-1.49q-1.28-3.06-2.26-6.25t-2.27-6.25a16.53 16.53 0 0 1-.72-1.87A12.67 12.67 0 0 0 451 52a7.43 7.43 0 0 0-.39-.81.94.94 0 0 0-.9-.38 1.38 1.38 0 0 1-.34.26 1.38 1.38 0 0 0-.34.25 3.19 3.19 0 0 0-.51.9c-.12.31-.23.64-.34 1a12 12 0 0 0-.68 1.87 12.58 12.58 0 0 1-.68 1.87 65.77 65.77 0 0 0-2.52 6.72q-1.07 3.41-2.44 6.63c-.11.28-.21.57-.3.85s-.18.57-.3.85l-.51 1.36a12.22 12.22 0 0 0-.43 1.36 2 2 0 0 0-.13.94 2.32 2.32 0 0 0 .22.85 2.05 2.05 0 0 0 1.8.72H456.23a5.81 5.81 0 0 0 2.05-.21m18.3 20.67c.11.29.26.62.43 1a6.29 6.29 0 0 1 .38 1.23 2.76 2.76 0 0 1 0 1.19 1.14 1.14 0 0 1-.73.81 2.75 2.75 0 0 1-1 .17h-3.72a4.34 4.34 0 0 1-2.09-.42 3 3 0 0 1-1.24-1.78 24.34 24.34 0 0 0-.81-2.3q-.94-2.21-1.71-4.59t-1.71-4.68c-.17-.51-.33-1-.47-1.45a8.58 8.58 0 0 0-.52-1.28 3.15 3.15 0 0 0-.81-1 3.89 3.89 0 0 0-1.37-.68 2.18 2.18 0 0 0-1-.13h-19.08a12.51 12.51 0 0 0-3.38.3 1.68 1.68 0 0 0-1.07.68 5.35 5.35 0 0 0-1 1.91c-.2.71-.44 1.43-.73 2.17q-.85 2-1.58 4.08t-1.58 4.08l-.38 1.15c-.14.43-.3.87-.47 1.32a9.44 9.44 0 0 1-.56 1.23 2.42 2.42 0 0 1-.64.81 3.22 3.22 0 0 1-1.84.55h-3.76a1.86 1.86 0 0 1-1.07-.38.93.93 0 0 1-.47-.76 3.36 3.36 0 0 1 .09-1.07 8 8 0 0 1 .34-1.1 4.13 4.13 0 0 1 .39-.81q1.2-2.72 2.14-5.4t2.05-5.4q.77-1.87 1.46-3.7t1.45-3.7q2.57-6.12 4.87-12.37T440.27 55q.94-2.21 1.75-4.51t1.76-4.49q.42-.94.81-2.08a3 3 0 0 1 1.16-1.66 2.23 2.23 0 0 1 1.11-.51.59.59 0 0 1 .38 0 .61.61 0 0 0 .39 0h3.59a5 5 0 0 1 3 .64 3.27 3.27 0 0 1 1.07 1.66q.39 1.15.81 2.08.86 2 1.54 3.91t1.54 3.91q.69 1.7 1.33 3.49t1.41 3.49q2.56 6.21 4.92 12.54t5 12.54a13.42 13.42 0 0 1 .56 1.44c.14.46.3.94.47 1.45q.94 2.21 1.84 4.51t1.84 4.51"/></g><path fill="#ffffff" d="M129.02 50.83l2.95-2.13h-3.65l-1.12-3.46-1.13 3.46h-3.64l2.95 2.13-1.13 3.45 2.95-2.13 2.95 2.13-1.13-3.45zM121.08 35.58l2.95 2.14-1.13-3.45 2.95-2.13h-3.64l-1.13-3.46-1.13 3.46h-3.65l2.96 2.13-1.13 3.45 2.95-2.14zM112.16 21.64l-1.13-3.46-1.13 3.46h-3.65l2.95 2.13-1.12 3.45 2.94-2.13 2.95 2.13-1.12-3.45 2.95-2.13h-3.64zM99.21 10.45l-1.13-3.46-1.13 3.46h-3.64l2.95 2.13-1.13 3.45 2.95-2.13 2.95 2.13-1.12-3.45 2.95-2.13h-3.65zM84.18 5.37l-1.13-3.45-1.13 3.45h-3.65l2.96 2.13-1.12 3.45 2.95-2.13 2.95 2.13-1.13-3.45 2.95-2.13h-3.65zM68.66 3.45L67.53 0l-1.12 3.45h-3.65l2.95 2.13-1.13 3.46 2.95-2.13 2.96 2.13-1.13-3.46 2.95-2.13h-3.65zM51.38 5.9l-1.12-3.46-1.13 3.46h-3.65l2.95 2.13-1.13 3.45 2.95-2.13 2.96 2.13-1.12-3.45 2.95-2.13h-3.66zM35.21 13.32l-1.13-3.45-1.13 3.45h-3.64l2.95 2.14-1.13 3.45 2.95-2.13 2.96 2.13-1.13-3.45 2.95-2.14h-3.65zM22.83 23.16l-1.13-3.45-1.13 3.45h-3.65l2.96 2.13-1.13 3.45 2.95-2.13 2.95 2.13-1.13-3.44 2.96-2.14h-3.65zM12.34 37.35l-1.13-3.45-1.13 3.45H6.43l2.95 2.13-1.12 3.46 2.95-2.14 2.95 2.14-1.13-3.46 2.95-2.13h-3.64zM5.35 51.1l-1.12 3.46H.58l2.95 2.12-1.13 3.46 2.95-2.13 2.95 2.13-1.13-3.45 2.96-2.13H6.48L5.35 51.1zM5.9 74.64l-1.13-3.45-1.12 3.45H0l2.95 2.14-1.13 3.45 2.95-2.14 2.96 2.14-1.13-3.45 2.95-2.14H5.9z"/><path d="M134.63 64C87.13 67.21 52.72 85.8 1.82 85.61c.81 3.94 2.69 6.75 3.79 9.93 44.92-2.88 76.71-23.77 127.8-17.24a90.33 90.33 0 0 0 1.22-14.3" fill="#f4b724"/><path d="M9.08 101a15.62 15.62 0 0 0 7.43 5.91c25.37 9.59 70.4 2.12 89.52 17.84a65.71 65.71 0 0 0 16.57-17.05C94 95.1 46.17 107.73 9.08 101" fill="#ffffff"/><path d="M17.83 112.3a40.45 40.45 0 0 1-3.88-2.3c13.47 24.16 58.28 36 85.79 18.53-18.48-15.68-57.85-6.06-81.91-16.24M132.63 82.18s-1.19 8.81-7.93 20c0 0-12.28-9.15-80.67-1.88 0 0 47.57-21.28 88.6-18.15" fill="#ffffff"/></svg>